# xmcd
#
# Track frame offsets:
#	150
#	10032
#	20937
#	34762
#	46364
#	60214
#	71991
#	83375
#	98310
#	114334
#	132177
#	149687
#	160874
#	174356
#	187411
#	203781
#
# Disc length: 2926
#
# Revision: 1
# Processed by: cddbd v1.5.1PL0 Copyright (c) Steve Scherf et al.
# Submitted via: CDex 1.50
# Normalized: r0:DSETVAR1,TDELIM( - )
#
DISCID=d30b6c10
DTITLE=Various Artist - Unforgettable - Jazz Love Songs
DYEAR=2001
DGENRE=Jazz
TTITLE0=Carmen McRae - Exactly Like You
TTITLE1=Nat King Cole - Let's Face The Music And Dance
TTITLE2=Aretha Franklin - My Guy
TTITLE3=Harry Connick, Jr. - Recipe For Love
TTITLE4=Louis Armstrong and Ella Fitzgerald - Dream A Little Dream Of Me
TTITLE5=Tony Bennett - Just In Time
TTITLE6=Dinah Washington - It's Magic
TTITLE7=Sammy Davis, Jr. - That Old Black Magic
TTITLE8=Natalie Cole - That Sunday That Summer
TTITLE9=Ray Charles - Careless Love
TTITLE10=Nina Simone - I Shell Be Released
TTITLE11=Frank Sinatra - Fly Me To The Moon
TTITLE12=Etta James - Trust In Me
TTITLE13=Louis Armstrong - The Sunshine Of Love
TTITLE14=Ruth Brown - Hurry On Down
TTITLE15=Nat King Cole and Natalie Cole - Unforgettable
EXTD=YEAR: 2001
EXTT0=
EXTT1=
EXTT2=
EXTT3=
EXTT4=
EXTT5=
EXTT6=
EXTT7=
EXTT8=
EXTT9=
EXTT10=
EXTT11=
EXTT12=
EXTT13=
EXTT14=
EXTT15=
PLAYORDER=
